<svg width="35" height="35" viewBox="0 0 35 35" fill="none" xmlns="http://www.w3.org/2000/svg">
<g clip-path="url(#clip0)">
<path d="M22.8844 32.3075H30.9615C32.0834 32.3075 33.0369 31.9148 33.8223 31.1297C34.6073 30.3444 35 29.391 35 28.269V20.1922C35 19.0702 34.6076 18.1169 33.8223 17.3318C33.0369 16.5468 32.0832 16.154 30.9615 16.154H26.2499C25.6892 16.154 25.2124 15.9575 24.8197 15.565C24.427 15.1727 24.2308 14.6957 24.2308 14.1345V13.4618C24.2308 11.9754 24.7567 10.7067 25.8083 9.65486C26.8599 8.60349 28.1289 8.07762 29.6155 8.07762H30.9615C31.3263 8.07762 31.6417 7.94406 31.9082 7.67781C32.1745 7.41156 32.3078 7.09595 32.3078 6.73135V4.03872C32.3078 3.67471 32.1745 3.35851 31.9082 3.09219C31.6415 2.82601 31.3264 2.69237 30.9615 2.69237H29.6154C28.1569 2.69237 26.7652 2.97675 25.44 3.54446C24.1149 4.11225 22.9686 4.8802 22.001 5.8478C21.0336 6.81548 20.2658 7.96152 19.698 9.28672C19.1302 10.6119 18.8462 12.0035 18.8462 13.4618L18.8462 28.2693C18.8462 29.3913 19.2388 30.3447 20.024 31.1298C20.8091 31.9149 21.7628 32.3075 22.8844 32.3075Z" fill="#FBBB00"/>
<path d="M1.17694 31.1297C1.96199 31.9148 2.91552 32.3075 4.03747 32.3075H12.1142C13.2362 32.3075 14.1897 31.9148 14.9748 31.1297C15.7598 30.3444 16.1523 29.391 16.1523 28.269V20.1922C16.1523 19.0702 15.7598 18.1169 14.9748 17.3318C14.1897 16.5468 13.2361 16.154 12.1142 16.154H7.40272C6.842 16.154 6.36476 15.9575 5.97216 15.565C5.57993 15.1725 5.38323 14.6957 5.38323 14.1345V13.4618C5.38323 11.9754 5.90917 10.7067 6.96098 9.65486C8.01257 8.60349 9.2812 8.07762 10.768 8.07762H12.1142C12.4788 8.07762 12.7945 7.94406 13.0607 7.67781C13.3272 7.41156 13.4606 7.09595 13.4606 6.73135V4.03872C13.4606 3.67471 13.3272 3.35851 13.0607 3.09219C12.7945 2.82601 12.4788 2.69237 12.1142 2.69237H10.768C9.30971 2.69237 7.91805 2.97675 6.5927 3.54446C5.26778 4.11225 4.12167 4.8802 3.15399 5.8478C2.18639 6.81548 1.41814 7.96181 0.850646 9.28672C0.282931 10.6116 -0.0012207 12.0035 -0.0012207 13.4618L-0.0012207 28.2693C-0.000999451 29.3913 0.391303 30.3447 1.17694 31.1297Z" fill="#FBBB00"/>
</g>
<defs>
<clipPath id="clip0">
<rect width="35.0001" height="35" fill="white" transform="translate(35 35) rotate(-180)"/>
</clipPath>
</defs>
</svg>
